<?xml version="1.0" encoding="utf-8"?>
<!-- Generator: Adobe Illustrator 19.1.0, SVG Export Plug-In . SVG Version: 6.00 Build 0)  -->
<svg version="1.1" id="Layer_1" xmlns="http://www.w3.org/2000/svg" xmlns:xlink="http://www.w3.org/1999/xlink" x="0px" y="0px"
	 viewBox="0 0 180 98" enable-background="new 0 0 180 98" xml:space="preserve">
<g>
	<g>
		<g>
			<path fill="#59595B" d="M53.9,1c1.1,0,2.2,0.1,3.3,0.4c1.1,0.2,2.1,0.6,3,1.2c0.9,0.5,1.6,1.3,2.1,2.1c0.5,0.9,0.8,1.9,0.8,3.2
				c0,2.1-0.6,3.9-1.9,5.2c-1.2,1.4-2.9,2.3-4.8,2.8V16c1.6,0.3,2.9,1,4,2.2c1.1,1.2,1.6,2.7,1.6,4.6c0,1.6-0.3,3-1,4.2
				c-0.7,1.2-1.6,2.2-2.8,3c-1.2,0.8-2.6,1.4-4.3,1.8c-1.7,0.4-3.5,0.6-5.4,0.6H36.1L41.6,1H53.9z M45.4,19l-1.3,7.5h4.3
				c0.8,0,1.6-0.1,2.4-0.2c0.7-0.1,1.4-0.4,2-0.7c0.6-0.3,1-0.8,1.4-1.3c0.3-0.6,0.5-1.2,0.5-2c0-1-0.4-1.8-1.2-2.4
				c-0.8-0.6-1.9-0.8-3.3-0.8H45.4z M47.6,7l-1.2,6.7h4.5c0.5,0,1.1-0.1,1.7-0.2c0.6-0.1,1.1-0.3,1.6-0.6c0.5-0.3,0.9-0.7,1.2-1.2
				c0.3-0.5,0.5-1.1,0.5-1.9c0-1-0.4-1.8-1.2-2.2c-0.8-0.4-1.8-0.7-3-0.7H47.6z"/>
			<path fill="#59595B" d="M65.6,32.5L71.1,1h20.1l-1.1,6.3H77.1L76,13.4h12.4l-1.1,6H74.9l-1.2,6.7h14.3L87,32.5H65.6z"/>
			<path fill="#59595B" d="M108.8,7.4l-4.4,25.1h-7.4l4.4-25.1h-8.8L93.7,1h24.8l-1.1,6.3H108.8z"/>
			<path fill="#59595B" d="M134.5,32.5l-1.1-6.3h-12.1l-3.8,6.3h-8.4l20-31.4h7.2l6,31.4H134.5z M131,9.1l-6.6,11.1h8.2L131,9.1z"/>
		</g>
		<g>
			<path fill="#030273" d="M55.6,1c1.1,0,2.2,0.1,3.3,0.4C60,1.6,61,2,61.8,2.6c0.9,0.5,1.6,1.3,2.1,2.1c0.5,0.9,0.8,1.9,0.8,3.2
				c0,2.1-0.6,3.9-1.9,5.2c-1.2,1.4-2.9,2.3-4.8,2.8V16c1.6,0.3,2.9,1,4,2.2c1.1,1.2,1.6,2.7,1.6,4.6c0,1.6-0.3,3-1,4.2
				c-0.7,1.2-1.6,2.2-2.8,3c-1.2,0.8-2.6,1.4-4.3,1.8c-1.7,0.4-3.5,0.6-5.4,0.6H37.8L43.3,1H55.6z M47.1,19l-1.3,7.5h4.3
				c0.8,0,1.6-0.1,2.4-0.2c0.7-0.1,1.4-0.4,2-0.7c0.6-0.3,1-0.8,1.4-1.3c0.3-0.6,0.5-1.2,0.5-2c0-1-0.4-1.8-1.2-2.4
				c-0.8-0.6-1.9-0.8-3.3-0.8H47.1z M49.3,7l-1.2,6.7h4.5c0.5,0,1.1-0.1,1.7-0.2c0.6-0.1,1.1-0.3,1.6-0.6c0.5-0.3,0.9-0.7,1.2-1.2
				c0.3-0.5,0.5-1.1,0.5-1.9c0-1-0.4-1.8-1.2-2.2c-0.8-0.4-1.8-0.7-3-0.7H49.3z"/>
			<path fill="#030273" d="M67.2,32.5L72.8,1h20.1l-1.1,6.3H78.7l-1.1,6.1h12.4l-1.1,6H76.6l-1.2,6.7h14.3l-1.1,6.3H67.2z"/>
			<path fill="#030273" d="M110.4,7.4L106,32.5h-7.4L103,7.4h-8.8L95.4,1h24.8l-1.1,6.3H110.4z"/>
			<path fill="#030273" d="M136.2,32.5l-1.1-6.3H123l-3.8,6.3h-8.4l20-31.4h7.2l6,31.4H136.2z M132.7,9.1l-6.6,11.1h8.2L132.7,9.1z"
				/>
		</g>
	</g>
	<g>
		<g>
			<path fill="#59595B" d="M19.4,94.4h10.4l-0.3,2H16.9l3.9-22.2h2.2L19.4,94.4z"/>
			<path fill="#59595B" d="M35.5,94.4h11.9l-0.3,2H32.9l3.9-22.2h13.3l-0.3,2H38.7l-1.3,7.7H48l-0.3,1.9H37L35.5,94.4z"/>
			<path fill="#59595B" d="M50.8,96.4h-2.6l14.3-22.2h2.2l4.6,22.2H67l-1.2-5.8H54.4L50.8,96.4z M55.7,88.5h9.7l-2.3-11.8L55.7,88.5
				z"/>
			<path fill="#59595B" d="M87,77.6c-0.4-0.6-1-1.1-1.7-1.5c-0.8-0.4-1.6-0.6-2.6-0.6c-0.6,0-1.3,0.1-1.9,0.3
				c-0.6,0.2-1.2,0.4-1.8,0.8C78.5,77,78,77.5,77.7,78c-0.3,0.6-0.5,1.2-0.5,2c0,0.6,0.1,1.1,0.3,1.5c0.2,0.4,0.5,0.8,0.9,1.1
				c0.4,0.3,0.8,0.6,1.3,0.8c0.5,0.2,1,0.4,1.6,0.7c0.6,0.3,1.3,0.5,2,0.8s1.3,0.7,1.8,1.2c0.5,0.5,1,1,1.3,1.6
				c0.3,0.6,0.5,1.3,0.5,2.2c0,0.8-0.1,1.5-0.4,2.4c-0.3,0.8-0.7,1.6-1.3,2.3c-0.6,0.7-1.5,1.3-2.5,1.7S80.4,97,78.9,97
				c-1.4,0-2.7-0.3-3.9-0.8c-1.3-0.6-2.2-1.4-2.9-2.5l2-1.3c0.4,0.7,1,1.4,1.9,1.9c0.8,0.5,1.8,0.8,3,0.8c0.8,0,1.5-0.1,2.1-0.3
				c0.7-0.2,1.3-0.5,1.8-0.9c0.5-0.4,0.9-0.9,1.2-1.5c0.3-0.6,0.4-1.2,0.4-1.9c0-0.6-0.1-1.2-0.4-1.6c-0.3-0.5-0.6-0.9-1-1.2
				c-0.4-0.3-0.9-0.6-1.5-0.9c-0.6-0.3-1.1-0.5-1.8-0.7c-0.6-0.2-1.2-0.5-1.9-0.8c-0.6-0.3-1.1-0.7-1.6-1.1c-0.5-0.4-0.8-1-1.1-1.6
				c-0.3-0.6-0.4-1.3-0.4-2.1c0-0.9,0.2-1.8,0.5-2.6c0.4-0.8,0.9-1.5,1.5-2.1c0.7-0.6,1.5-1.1,2.5-1.4c1-0.3,2.1-0.5,3.4-0.5
				c1.5,0,2.8,0.2,3.8,0.7c1.1,0.5,1.8,1.1,2.3,1.9L87,77.6z"/>
			<path fill="#59595B" d="M92.8,96.4h-2.2l3.9-22.2h2.2L92.8,96.4z"/>
			<path fill="#59595B" d="M114.6,93.2L114.6,93.2l3.4-19h2.2l-3.9,22.2h-2.8l-9.1-19.3h-0.1L101,96.4h-2.2l3.9-22.2h2.8L114.6,93.2
				z"/>
			<path fill="#59595B" d="M132.9,95c1.3,0,2.5-0.1,3.5-0.4c1.1-0.3,2-0.6,2.8-1.1l1.2-6.8h-5.2l0.3-1.9h7.4l-1.8,10
				c-1.3,0.8-2.7,1.3-4.1,1.7c-1.4,0.3-2.8,0.5-4.3,0.5c-1.5,0-2.8-0.2-4.1-0.7c-1.2-0.5-2.3-1.1-3.2-1.9c-0.9-0.8-1.6-1.8-2-3
				c-0.5-1.2-0.7-2.5-0.7-3.9c0-1.9,0.3-3.7,1-5.4c0.7-1.7,1.6-3.1,2.8-4.4c1.2-1.2,2.6-2.2,4.2-2.9c1.6-0.7,3.3-1.1,5.2-1.1
				c0.8,0,1.6,0.1,2.4,0.3c0.8,0.2,1.5,0.4,2.1,0.7c0.6,0.3,1.2,0.7,1.7,1.1c0.5,0.4,0.9,0.9,1.2,1.5l-2,1.3
				c-0.2-0.4-0.4-0.7-0.7-1.1c-0.3-0.4-0.7-0.7-1.2-1c-0.5-0.3-1-0.5-1.6-0.7c-0.6-0.2-1.3-0.3-2-0.3c-1.6,0-3,0.3-4.4,1
				c-1.3,0.7-2.5,1.5-3.4,2.6c-1,1.1-1.7,2.3-2.2,3.7c-0.5,1.4-0.8,2.8-0.8,4.3c0,1.1,0.2,2.1,0.5,3.1c0.3,1,0.8,1.8,1.5,2.5
				c0.7,0.7,1.5,1.3,2.4,1.7C130.6,94.8,131.7,95,132.9,95z"/>
		</g>
		<path fill="#030273" d="M1,73.6c0,0,2.5-12.2,43.5-13.8c41-1.6,77.9,1.9,87.9-4.4c0,0,22.2-1.6,46.6,4.1c0,0-38.5-3.6-43.5-1.5
			c0,0-3.8,7.2-31.9,6.4C75.5,63.6,24.5,56.1,1,73.6"/>
		<path fill="#030273" d="M55.4,58c0,0,22.9-20,66.3-12.9c0,0,20.8,4.2,28.6,7c0,0,20.2,3.6,23.7,4.2c0,0-36-3.6-38.8-2.3
			c0,0-4.2,0-2.3-2.4c0,0,3.4-1.3-7.8-3.9c-11.7-1.3-38.5-7.1-69.7,10.9"/>
	</g>
</g>
</svg>
