<?xml version="1.0" encoding="utf-8"?>
<!-- Generator: Adobe Illustrator 19.1.0, SVG Export Plug-In . SVG Version: 6.00 Build 0)  -->
<svg version="1.1" id="Layer_1" xmlns="http://www.w3.org/2000/svg" xmlns:xlink="http://www.w3.org/1999/xlink" x="0px" y="0px"
	 viewBox="0 0 180 47.6" style="enable-background:new 0 0 180 47.6;" xml:space="preserve">
<g>
	<g>
		<path style="fill:#59595B;" d="M78.7,39h6.5l-0.2,1.2h-7.9l2.5-14H81L78.7,39z"/>
		<path style="fill:#59595B;" d="M88.8,39h7.5l-0.2,1.2h-8.9l2.5-14H98l-0.2,1.2h-7L90,32.3h6.7l-0.2,1.2h-6.7L88.8,39z"/>
		<path style="fill:#59595B;" d="M98.4,40.2h-1.6l9-14h1.4l2.9,14h-1.5l-0.7-3.7h-7.1L98.4,40.2z M101.5,35.2h6.1l-1.5-7.4
			L101.5,35.2z"/>
		<path style="fill:#59595B;" d="M121.2,28.4c-0.3-0.4-0.6-0.7-1.1-0.9c-0.5-0.2-1-0.4-1.7-0.4c-0.4,0-0.8,0.1-1.2,0.2
			c-0.4,0.1-0.8,0.3-1.1,0.5c-0.3,0.2-0.6,0.5-0.8,0.9c-0.2,0.3-0.3,0.8-0.3,1.3c0,0.4,0.1,0.7,0.2,0.9c0.1,0.3,0.3,0.5,0.5,0.7
			s0.5,0.4,0.8,0.5c0.3,0.1,0.6,0.3,1,0.4c0.4,0.2,0.8,0.3,1.2,0.5c0.4,0.2,0.8,0.4,1.1,0.7c0.3,0.3,0.6,0.6,0.8,1
			c0.2,0.4,0.3,0.8,0.3,1.4c0,0.5-0.1,1-0.3,1.5c-0.2,0.5-0.5,1-0.8,1.4c-0.4,0.4-0.9,0.8-1.6,1.1s-1.4,0.4-2.4,0.4
			c-0.9,0-1.7-0.2-2.5-0.5c-0.8-0.3-1.4-0.9-1.8-1.5l1.3-0.8c0.3,0.5,0.7,0.9,1.2,1.2c0.5,0.3,1.2,0.5,1.9,0.5
			c0.5,0,0.9-0.1,1.4-0.2c0.4-0.1,0.8-0.3,1.1-0.6c0.3-0.3,0.6-0.6,0.8-0.9c0.2-0.4,0.3-0.8,0.3-1.2c0-0.4-0.1-0.7-0.2-1
			c-0.2-0.3-0.4-0.5-0.6-0.7c-0.3-0.2-0.6-0.4-0.9-0.6c-0.3-0.2-0.7-0.3-1.1-0.5c-0.4-0.1-0.8-0.3-1.2-0.5c-0.4-0.2-0.7-0.4-1-0.7
			c-0.3-0.3-0.5-0.6-0.7-1c-0.2-0.4-0.3-0.8-0.3-1.3c0-0.6,0.1-1.1,0.3-1.7c0.2-0.5,0.5-1,1-1.3c0.4-0.4,0.9-0.7,1.6-0.9
			c0.6-0.2,1.3-0.3,2.1-0.3c0.9,0,1.8,0.2,2.4,0.5c0.7,0.3,1.1,0.7,1.4,1.2L121.2,28.4z"/>
		<path style="fill:#59595B;" d="M124.8,40.2h-1.4l2.5-14h1.4L124.8,40.2z"/>
		<path style="fill:#59595B;" d="M138.5,38.2L138.5,38.2l2.1-12h1.4l-2.5,14h-1.8l-5.7-12.1h0L130,40.2h-1.4l2.5-14h1.8L138.5,38.2z
			"/>
		<path style="fill:#59595B;" d="M150,39.3c0.8,0,1.5-0.1,2.2-0.3c0.7-0.2,1.3-0.4,1.7-0.7l0.7-4.3h-3.3l0.2-1.2h4.7l-1.1,6.3
			c-0.8,0.5-1.7,0.8-2.6,1c-0.9,0.2-1.8,0.3-2.7,0.3c-0.9,0-1.8-0.1-2.6-0.4c-0.8-0.3-1.4-0.7-2-1.2c-0.6-0.5-1-1.2-1.3-1.9
			c-0.3-0.7-0.5-1.6-0.5-2.4c0-1.2,0.2-2.3,0.7-3.4c0.4-1.1,1-2,1.8-2.7c0.8-0.8,1.6-1.4,2.7-1.9c1-0.5,2.1-0.7,3.3-0.7
			c0.5,0,1,0.1,1.5,0.2c0.5,0.1,0.9,0.3,1.3,0.4s0.8,0.4,1.1,0.7c0.3,0.3,0.6,0.6,0.8,0.9l-1.3,0.8c-0.1-0.2-0.3-0.4-0.5-0.7
			c-0.2-0.2-0.4-0.4-0.7-0.6c-0.3-0.2-0.6-0.3-1-0.4c-0.4-0.1-0.8-0.2-1.3-0.2c-1,0-1.9,0.2-2.7,0.6c-0.8,0.4-1.6,1-2.1,1.6
			c-0.6,0.7-1.1,1.5-1.4,2.3c-0.3,0.9-0.5,1.8-0.5,2.7c0,0.7,0.1,1.3,0.3,1.9c0.2,0.6,0.5,1.1,0.9,1.6c0.4,0.4,0.9,0.8,1.5,1
			C148.6,39.2,149.3,39.3,150,39.3z"/>
	</g>
	<g>
		<path style="fill:#59595B;" d="M12.2,19.3c0.7,0,1.4,0.1,2.1,0.2c0.7,0.1,1.3,0.4,1.9,0.7c0.5,0.3,1,0.8,1.3,1.3
			c0.3,0.5,0.5,1.2,0.5,2c0,1.3-0.4,2.4-1.2,3.3c-0.8,0.9-1.8,1.4-3,1.8v0.1c1,0.2,1.8,0.6,2.5,1.4c0.7,0.7,1,1.7,1,2.9
			c0,1-0.2,1.9-0.6,2.7c-0.4,0.8-1,1.4-1.7,1.9c-0.7,0.5-1.6,0.9-2.7,1.2c-1,0.3-2.2,0.4-3.4,0.4H1l3.5-19.8H12.2z M6.9,30.6
			l-0.8,4.7h2.7c0.5,0,1,0,1.5-0.1c0.5-0.1,0.9-0.2,1.2-0.4c0.4-0.2,0.7-0.5,0.9-0.8c0.2-0.4,0.3-0.8,0.3-1.3c0-0.6-0.2-1.1-0.7-1.5
			c-0.5-0.4-1.2-0.5-2.1-0.5H6.9z M8.2,23.1l-0.7,4.2h2.8c0.3,0,0.7,0,1-0.1c0.4-0.1,0.7-0.2,1-0.4c0.3-0.2,0.5-0.4,0.7-0.7
			c0.2-0.3,0.3-0.7,0.3-1.2c0-0.6-0.3-1.1-0.8-1.4c-0.5-0.3-1.1-0.4-1.9-0.4H8.2z"/>
		<path style="fill:#59595B;" d="M19.5,39.1L23,19.3h12.6l-0.7,4h-8.2l-0.7,3.8h7.8l-0.7,3.7h-7.8l-0.7,4.2h9l-0.7,4H19.5z"/>
		<path style="fill:#59595B;" d="M46.7,23.3l-2.8,15.8h-4.6L42,23.3h-5.5l0.7-4h15.6l-0.7,4H46.7z"/>
		<path style="fill:#59595B;" d="M62.8,39.1l-0.7-3.9h-7.6l-2.4,3.9h-5.3l12.6-19.8H64l3.7,19.8H62.8z M60.7,24.4l-4.1,7h5.2
			L60.7,24.4z"/>
	</g>
	<g>
		<path style="fill:#030273;" d="M13.3,19.3c0.7,0,1.4,0.1,2.1,0.2c0.7,0.1,1.3,0.4,1.9,0.7c0.5,0.3,1,0.8,1.3,1.3
			c0.3,0.5,0.5,1.2,0.5,2c0,1.3-0.4,2.4-1.2,3.3c-0.8,0.9-1.8,1.4-3,1.8v0.1c1,0.2,1.8,0.6,2.5,1.4c0.7,0.7,1,1.7,1,2.9
			c0,1-0.2,1.9-0.6,2.7c-0.4,0.8-1,1.4-1.7,1.9c-0.7,0.5-1.6,0.9-2.7,1.2c-1,0.3-2.2,0.4-3.4,0.4H2.1l3.5-19.8H13.3z M7.9,30.6
			l-0.8,4.7h2.7c0.5,0,1,0,1.5-0.1c0.5-0.1,0.9-0.2,1.2-0.4c0.4-0.2,0.7-0.5,0.9-0.8c0.2-0.4,0.3-0.8,0.3-1.3c0-0.6-0.2-1.1-0.7-1.5
			c-0.5-0.4-1.2-0.5-2.1-0.5H7.9z M9.3,23.1l-0.7,4.2h2.8c0.3,0,0.7,0,1-0.1c0.4-0.1,0.7-0.2,1-0.4c0.3-0.2,0.5-0.4,0.7-0.7
			c0.2-0.3,0.3-0.7,0.3-1.2c0-0.6-0.3-1.1-0.8-1.4c-0.5-0.3-1.1-0.4-1.9-0.4H9.3z"/>
		<path style="fill:#030273;" d="M20.6,39.1l3.5-19.8h12.6l-0.7,4h-8.2l-0.7,3.8H35l-0.7,3.7h-7.8l-0.7,4.2h9l-0.7,4H20.6z"/>
		<path style="fill:#030273;" d="M47.7,23.3L45,39.1h-4.6l2.8-15.8h-5.5l0.7-4h15.6l-0.7,4H47.7z"/>
		<path style="fill:#030273;" d="M63.9,39.1l-0.7-3.9h-7.6l-2.4,3.9h-5.3l12.6-19.8H65l3.7,19.8H63.9z M61.7,24.4l-4.1,7h5.2
			L61.7,24.4z"/>
	</g>
	<path style="fill:#030273;" d="M67.1,25.9c0,0,1.6-7.7,27.3-8.7c25.8-1,49,1.2,55.2-2.8c0,0,14-1,29.3,2.6c0,0-24.2-2.3-27.3-0.9
		c0,0-2.4,4.5-20.1,4C113.9,19.6,81.9,14.8,67.1,25.9"/>
	<path style="fill:#030273;" d="M101.3,16.1c0,0,14.4-12.6,41.7-8.1c0,0,13.1,2.7,18,4.4c0,0,12.7,2.2,14.9,2.7
		c0,0-22.6-2.3-24.4-1.4c0,0-2.7,0-1.4-1.5c0,0,2.1-0.8-4.9-2.5c-7.4-0.8-24.2-4.5-43.8,6.8"/>
</g>
</svg>
