<?xml version="1.0" encoding="utf-8"?>
<!-- Generator: Adobe Illustrator 19.1.0, SVG Export Plug-In . SVG Version: 6.00 Build 0)  -->
<svg version="1.1" id="Layer_1" xmlns="http://www.w3.org/2000/svg" xmlns:xlink="http://www.w3.org/1999/xlink" x="0px" y="0px"
	 viewBox="0 0 40 40" style="enable-background:new 0 0 40 40;" xml:space="preserve">
<g>
	<path d="M29.2,25.7c0.1,0,0.2,0,0.3-0.1l9.8-6.6c0.2-0.2,0.3-0.5,0.1-0.7c-0.2-0.2-0.5-0.3-0.7-0.1L29,24.7h-7.9v-2.9h8
		c0.1,0,0.2,0,0.3-0.1l9.8-6.6c0.2-0.2,0.3-0.5,0.1-0.7c-0.2-0.2-0.5-0.3-0.7-0.1L29,20.8h-7.9v-2.3h8c0.1,0,0.2,0,0.3-0.1l9.8-6.6
		c0.2-0.1,0.3-0.4,0.2-0.6S39.2,11,39,11h-8.8l0.6-0.4c0.2-0.1,0.3-0.4,0.2-0.6s-0.3-0.4-0.5-0.4H18.7c-0.1,0-0.2,0-0.3,0.1L16.6,11
		h-5.7c-0.1,0-0.2,0-0.3,0.1l-9.8,6.6c-0.2,0.1-0.3,0.4-0.2,0.6s0.3,0.4,0.5,0.4h7.4v1.6H1c-0.3,0-0.5,0.2-0.5,0.5s0.2,0.5,0.5,0.5
		h7.4v1.6H1c-0.3,0-0.5,0.2-0.5,0.5s0.2,0.5,0.5,0.5h7.4v1.6H1c-0.3,0-0.5,0.2-0.5,0.5s0.2,0.5,0.5,0.5h7.4V28H1
		c-0.3,0-0.5,0.2-0.5,0.5S0.7,29,1,29h7.4v0.8c0,0.3,0.2,0.5,0.5,0.5h11.8c0.3,0,0.5-0.2,0.5-0.5V29h8c0.1,0,0.2,0,0.3-0.1l9.8-6.6
		c0.2-0.2,0.3-0.5,0.1-0.7c-0.2-0.2-0.5-0.3-0.7-0.1L29,28h-7.9v-2.3H29.2z M37.3,12L29,17.5h-7.9V17l7.5-5H37.3z M2.7,17.5L11,12
		h4.1l-6.5,4.3c-0.1,0.1-0.2,0.2-0.2,0.4v0.8H2.7z M20.2,29.3H9.4V17l9.5-6.3h10l-8.5,5.6c-0.1,0.1-0.2,0.2-0.2,0.4V29.3z"/>
	<path d="M14.8,18.5c0.8,0,1.5,0.7,1.5,1.5c0,0.3,0.2,0.5,0.5,0.5s0.5-0.2,0.5-0.5c0-1.2-0.8-2.2-2-2.4v-0.9c0-0.3-0.2-0.5-0.5-0.5
		s-0.5,0.2-0.5,0.5v0.9c-1.1,0.2-2,1.2-2,2.4c0,1.4,1.1,2.5,2.5,2.5c0.8,0,1.5,0.7,1.5,1.5c0,0.8-0.7,1.5-1.5,1.5c0,0,0,0,0,0
		c0,0,0,0,0,0c-0.8,0-1.5-0.7-1.5-1.5c0-0.3-0.2-0.5-0.5-0.5s-0.5,0.2-0.5,0.5c0,1.2,0.8,2.2,2,2.4v0.9c0,0.3,0.2,0.5,0.5,0.5
		s0.5-0.2,0.5-0.5v-0.9c1.1-0.2,2-1.2,2-2.4c0-1.4-1.1-2.5-2.5-2.5c-0.8,0-1.5-0.7-1.5-1.5S14,18.5,14.8,18.5z"/>
</g>
</svg>
