<?xml version="1.0" encoding="utf-8"?>
<!-- Generator: Adobe Illustrator 19.1.0, SVG Export Plug-In . SVG Version: 6.00 Build 0)  -->
<svg version="1.1" id="Layer_1" xmlns="http://www.w3.org/2000/svg" xmlns:xlink="http://www.w3.org/1999/xlink" x="0px" y="0px"
	 viewBox="0 0 40 40" style="enable-background:new 0 0 40 40;" xml:space="preserve">
<g>
	<path d="M31.1,0.5H8.9c-2.1,0-3.8,1.7-3.8,3.8v31.4c0,2.1,1.7,3.8,3.8,3.8h22.3c2.1,0,3.8-1.7,3.8-3.8V4.3
		C34.9,2.2,33.2,0.5,31.1,0.5z M6.1,17.2h13.4v9.5H6.1V17.2z M20.5,17.2h13.4v9.5H20.5V17.2z M8.9,1.5h22.3c1.5,0,2.8,1.2,2.8,2.8
		v11.9H6.1V4.3C6.1,2.7,7.3,1.5,8.9,1.5z M6.1,35.7v-8h13.4v10.8H8.9C7.3,38.5,6.1,37.3,6.1,35.7z M31.1,38.5H20.5V27.7h13.4v8
		C33.9,37.3,32.7,38.5,31.1,38.5z"/>
	<path d="M10.8,13.3h18.3c1,0,1.8-0.8,1.8-1.8V6.2c0-1-0.8-1.8-1.8-1.8H10.8C9.8,4.4,9,5.2,9,6.2v5.2C9,12.5,9.8,13.3,10.8,13.3z
		 M10,6.2c0-0.4,0.4-0.8,0.8-0.8h18.3c0.4,0,0.8,0.4,0.8,0.8v5.2c0,0.4-0.4,0.8-0.8,0.8H10.8c-0.4,0-0.8-0.4-0.8-0.8V6.2z"/>
	<path d="M14.8,21.5h-2.1v-2.1c0-0.3-0.2-0.5-0.5-0.5s-0.5,0.2-0.5,0.5v2.1H9.5C9.2,21.5,9,21.7,9,22s0.2,0.5,0.5,0.5h2.1v2.1
		c0,0.3,0.2,0.5,0.5,0.5s0.5-0.2,0.5-0.5v-2.1h2.1c0.3,0,0.5-0.2,0.5-0.5S15,21.5,14.8,21.5z"/>
	<path d="M29.8,21.5h-5.2c-0.3,0-0.5,0.2-0.5,0.5s0.2,0.5,0.5,0.5h5.2c0.3,0,0.5-0.2,0.5-0.5S30.1,21.5,29.8,21.5z"/>
	<path d="M29.8,30.6h-5.2c-0.3,0-0.5,0.2-0.5,0.5s0.2,0.5,0.5,0.5h5.2c0.3,0,0.5-0.2,0.5-0.5S30.1,30.6,29.8,30.6z"/>
	<path d="M29.8,33.3h-5.2c-0.3,0-0.5,0.2-0.5,0.5s0.2,0.5,0.5,0.5h5.2c0.3,0,0.5-0.2,0.5-0.5S30.1,33.3,29.8,33.3z"/>
	<path d="M12.8,33.1l1.6-1.6c0.2-0.2,0.2-0.5,0-0.7s-0.5-0.2-0.7,0l-1.6,1.6l-1.6-1.6c-0.2-0.2-0.5-0.2-0.7,0s-0.2,0.5,0,0.7
		l1.6,1.6l-1.6,1.6c-0.2,0.2-0.2,0.5,0,0.7c0.1,0.1,0.2,0.1,0.4,0.1s0.3,0,0.4-0.1l1.6-1.6l1.6,1.6c0.1,0.1,0.2,0.1,0.4,0.1
		s0.3,0,0.4-0.1c0.2-0.2,0.2-0.5,0-0.7L12.8,33.1z"/>
</g>
</svg>
