<?xml version="1.0" encoding="utf-8"?>
<!-- Generator: Adobe Illustrator 19.1.0, SVG Export Plug-In . SVG Version: 6.00 Build 0)  -->
<svg version="1.1" id="Layer_1" xmlns="http://www.w3.org/2000/svg" xmlns:xlink="http://www.w3.org/1999/xlink" x="0px" y="0px"
	 viewBox="0 0 40 40" enable-background="new 0 0 40 40" xml:space="preserve">
<g>
	<path fill="none" stroke="#000000" stroke-linejoin="round" stroke-miterlimit="10" d="M34.4,35.7c0,1.8-1.5,3.3-3.3,3.3H8.9
		c-1.8,0-3.3-1.5-3.3-3.3V4.3C5.6,2.5,7.1,1,8.9,1h22.3c1.8,0,3.3,1.5,3.3,3.3V35.7z"/>
	<path fill="none" stroke="#000000" stroke-linejoin="round" stroke-miterlimit="10" d="M30.5,11.5c0,0.7-0.6,1.3-1.3,1.3H10.8
		c-0.7,0-1.3-0.6-1.3-1.3V6.2c0-0.7,0.6-1.3,1.3-1.3h18.3c0.7,0,1.3,0.6,1.3,1.3V11.5z"/>
	<line fill="none" stroke="#000000" stroke-linejoin="round" stroke-miterlimit="10" x1="5.6" y1="27.2" x2="34.4" y2="27.2"/>
	<line fill="none" stroke="#000000" stroke-linejoin="round" stroke-miterlimit="10" x1="5.6" y1="16.7" x2="34.4" y2="16.7"/>
	<line fill="none" stroke="#000000" stroke-linejoin="round" stroke-miterlimit="10" x1="20" y1="16.7" x2="20" y2="39"/>
	
		<line fill="none" stroke="#000000" stroke-linecap="round" stroke-linejoin="round" stroke-miterlimit="10" x1="9.5" y1="22" x2="14.8" y2="22"/>
	
		<line fill="none" stroke="#000000" stroke-linecap="round" stroke-linejoin="round" stroke-miterlimit="10" x1="24.6" y1="22" x2="29.8" y2="22"/>
	
		<line fill="none" stroke="#000000" stroke-linecap="round" stroke-linejoin="round" stroke-miterlimit="10" x1="24.6" y1="31.1" x2="29.8" y2="31.1"/>
	
		<line fill="none" stroke="#000000" stroke-linecap="round" stroke-linejoin="round" stroke-miterlimit="10" x1="24.6" y1="33.8" x2="29.8" y2="33.8"/>
	
		<line fill="none" stroke="#000000" stroke-linecap="round" stroke-linejoin="round" stroke-miterlimit="10" x1="10.2" y1="31.1" x2="14.1" y2="35.1"/>
	
		<line fill="none" stroke="#000000" stroke-linecap="round" stroke-linejoin="round" stroke-miterlimit="10" x1="10.2" y1="35.1" x2="14.1" y2="31.1"/>
	
		<line fill="none" stroke="#000000" stroke-linecap="round" stroke-linejoin="round" stroke-miterlimit="10" x1="12.1" y1="19.3" x2="12.1" y2="24.6"/>
</g>
</svg>
