<?xml version="1.0" encoding="utf-8"?>
<!-- Generator: Adobe Illustrator 19.1.0, SVG Export Plug-In . SVG Version: 6.00 Build 0)  -->
<svg version="1.1" id="Layer_1" xmlns="http://www.w3.org/2000/svg" xmlns:xlink="http://www.w3.org/1999/xlink" x="0px" y="0px"
	 viewBox="0 0 40 40" style="enable-background:new 0 0 40 40;" xml:space="preserve">
<g>
	<path d="M39,1.2H1c-0.3,0-0.5,0.2-0.5,0.5v13.1c0,0.3,0.2,0.5,0.5,0.5h7.4v5.4c0,0.2,0.1,0.4,0.3,0.4c0.1,0,0.1,0.1,0.2,0.1
		c0.1,0,0.2,0,0.3-0.1l7.7-5.8H39c0.3,0,0.5-0.2,0.5-0.5V1.7C39.5,1.4,39.3,1.2,39,1.2z M38.5,14.3H16.7c-0.1,0-0.2,0-0.3,0.1
		l-7.1,5.3v-4.9c0-0.3-0.2-0.5-0.5-0.5H1.5V2.2h37V14.3z"/>
	<path d="M39,19.5H17.5c-0.3,0-0.5,0.2-0.5,0.5s0.2,0.5,0.5,0.5h21v10.8h-7.4c-0.3,0-0.5,0.2-0.5,0.5v5.4l-6.4-5.8
		c-0.1-0.1-0.2-0.1-0.3-0.1H1.5V20.5h3.6c0.3,0,0.5-0.2,0.5-0.5s-0.2-0.5-0.5-0.5H1c-0.3,0-0.5,0.2-0.5,0.5v11.8
		c0,0.3,0.2,0.5,0.5,0.5h22.7l7.1,6.4c0.1,0.1,0.2,0.1,0.3,0.1c0.1,0,0.1,0,0.2,0c0.2-0.1,0.3-0.3,0.3-0.5v-6.1H39
		c0.3,0,0.5-0.2,0.5-0.5V20C39.5,19.7,39.3,19.5,39,19.5z"/>
</g>
</svg>
