<?xml version="1.0" encoding="utf-8"?>
<!-- Generator: Adobe Illustrator 19.1.0, SVG Export Plug-In . SVG Version: 6.00 Build 0)  -->
<svg version="1.1" id="Layer_1" xmlns="http://www.w3.org/2000/svg" xmlns:xlink="http://www.w3.org/1999/xlink" x="0px" y="0px"
	 viewBox="0 0 40 40" style="enable-background:new 0 0 40 40;" xml:space="preserve">
<g>
	<path d="M33.8,28H14.1c-0.3,0-0.5,0.2-0.5,0.5s0.2,0.5,0.5,0.5h19.7c0.3,0,0.5-0.2,0.5-0.5S34,28,33.8,28z"/>
	<path d="M20.7,22.8c-0.3,0-0.5,0.2-0.5,0.5s0.2,0.5,0.5,0.5h13.1c0.3,0,0.5-0.2,0.5-0.5s-0.2-0.5-0.5-0.5H20.7z"/>
	<path d="M39,13.6H23.2l5-5c0.1-0.1,0.1-0.2,0.1-0.4s-0.1-0.3-0.1-0.4l-3.3-3.3c-0.2-0.2-0.5-0.2-0.7,0l-2.6,2.6l-1.9-2
		c-0.1-0.1-0.2-0.2-0.4-0.2c-0.2,0-0.3,0.1-0.4,0.1l-5.2,5.2c-0.2,0.2-0.2,0.5,0,0.7c0.1,0.1,0.2,0.1,0.4,0.1s0.3,0,0.4-0.1l4.9-4.9
		l1.5,1.6l-5.7,5.7H1c-0.3,0-0.5,0.2-0.5,0.5v21c0,0.3,0.2,0.5,0.5,0.5h38c0.3,0,0.5-0.2,0.5-0.5v-21C39.5,13.8,39.3,13.6,39,13.6z
		 M6.5,24.2l2.1,2.1l-2.9,0.8L6.5,24.2z M9.5,25.8l-2.6-2.6l8.8-8.8c0,0,0,0,0,0l2.9-2.9l2.6,2.6L9.5,25.8z M24.6,5.6l2.6,2.6
		L22,13.4l-2.6-2.6L24.6,5.6z M38.5,34.6h-37v-20h12.7l-8.3,8.3C5.8,23,5.8,23,5.8,23.1c0,0,0,0,0,0l-1.3,4.6c0,0.2,0,0.4,0.1,0.5
		c0.1,0.1,0.2,0.1,0.4,0.1c0,0,0.1,0,0.1,0L9.7,27c0,0,0,0,0,0c0.1,0,0.1-0.1,0.2-0.1l12.3-12.3h16.3V34.6z"/>
</g>
</svg>
