<?xml version="1.0" encoding="utf-8"?>
<!-- Generator: Adobe Illustrator 19.1.0, SVG Export Plug-In . SVG Version: 6.00 Build 0)  -->
<svg version="1.1" id="Layer_1" xmlns="http://www.w3.org/2000/svg" xmlns:xlink="http://www.w3.org/1999/xlink" x="0px" y="0px"
	 viewBox="0 0 40 40" style="enable-background:new 0 0 40 40;" xml:space="preserve">
<g>
	<path d="M26.6,0.5c-7.1,0-12.9,5.8-12.9,12.9c0,0.1,0,0.1,0,0.2c-0.1,0-0.1,0-0.2,0c-7.1,0-12.9,5.8-12.9,12.9s5.8,12.9,12.9,12.9
		s12.9-5.8,12.9-12.9c0-0.1,0-0.1,0-0.2c0.1,0,0.1,0,0.2,0c7.1,0,12.9-5.8,12.9-12.9S33.7,0.5,26.6,0.5z M25.4,26.6
		c0,6.6-5.4,11.9-11.9,11.9S1.5,33.1,1.5,26.6s5.4-11.9,11.9-11.9c0.1,0,0.1,0,0.2,0c0.6,6.2,5.5,11.2,11.7,11.7
		C25.4,26.4,25.4,26.5,25.4,26.6z M26.6,25.4c-6.6,0-11.9-5.4-11.9-11.9S20,1.5,26.6,1.5s11.9,5.4,11.9,11.9S33.1,25.4,26.6,25.4z"
		/>
	<path d="M26.6,8.7c1.2,0,2.1,1,2.1,2.1c0,0.3,0.2,0.5,0.5,0.5s0.5-0.2,0.5-0.5c0-1.5-1.1-2.8-2.6-3.1V6.9c0-0.3-0.2-0.5-0.5-0.5
		s-0.5,0.2-0.5,0.5v0.9c-1.5,0.2-2.6,1.5-2.6,3.1c0,1.7,1.4,3.1,3.1,3.1c1.2,0,2.1,1,2.1,2.1s-1,2.1-2.1,2.1c-1.2,0-2.1-1-2.1-2.1
		c0-0.3-0.2-0.5-0.5-0.5s-0.5,0.2-0.5,0.5c0,1.5,1.1,2.8,2.6,3.1V20c0,0.3,0.2,0.5,0.5,0.5s0.5-0.2,0.5-0.5v-0.9
		c1.5-0.2,2.6-1.5,2.6-3.1c0-1.7-1.4-3.1-3.1-3.1c-1.2,0-2.1-1-2.1-2.1S25.4,8.7,26.6,8.7z"/>
	<path d="M13.4,21.8c1.2,0,2.1,1,2.1,2.1c0,0.3,0.2,0.5,0.5,0.5s0.5-0.2,0.5-0.5c0-1.5-1.1-2.8-2.6-3.1V20c0-0.3-0.2-0.5-0.5-0.5
		s-0.5,0.2-0.5,0.5v0.9c-1.5,0.2-2.6,1.5-2.6,3.1c0,1.7,1.4,3.1,3.1,3.1c1.2,0,2.1,1,2.1,2.1s-1,2.1-2.1,2.1c-1.2,0-2.1-1-2.1-2.1
		c0-0.3-0.2-0.5-0.5-0.5s-0.5,0.2-0.5,0.5c0,1.5,1.1,2.8,2.6,3.1v0.9c0,0.3,0.2,0.5,0.5,0.5s0.5-0.2,0.5-0.5v-0.9
		c1.5-0.2,2.6-1.5,2.6-3.1c0-1.7-1.4-3.1-3.1-3.1c-1.2,0-2.1-1-2.1-2.1S12.3,21.8,13.4,21.8z"/>
</g>
</svg>
