<?xml version="1.0" encoding="utf-8"?>
<!-- Generator: Adobe Illustrator 19.1.0, SVG Export Plug-In . SVG Version: 6.00 Build 0)  -->
<svg version="1.1" id="Layer_1" xmlns="http://www.w3.org/2000/svg" xmlns:xlink="http://www.w3.org/1999/xlink" x="0px" y="0px"
	 viewBox="0 0 40 40" style="enable-background:new 0 0 40 40;" xml:space="preserve">
<path d="M20.5,19.5V7.4c3.1,0.3,5.6,2.9,5.6,6c0,0.3,0.2,0.5,0.5,0.5s0.5-0.2,0.5-0.5c0-3.7-2.9-6.8-6.6-7V1c0-0.3-0.2-0.5-0.5-0.5
	S19.5,0.7,19.5,1v5.4c-3.7,0.3-6.6,3.3-6.6,7s2.9,6.8,6.6,7v12.1c-3.1-0.3-5.6-2.9-5.6-6c0-0.3-0.2-0.5-0.5-0.5s-0.5,0.2-0.5,0.5
	c0,3.7,2.9,6.8,6.6,7V39c0,0.3,0.2,0.5,0.5,0.5s0.5-0.2,0.5-0.5v-5.4c3.7-0.3,6.6-3.3,6.6-7S24.2,19.8,20.5,19.5z M13.9,13.4
	c0-3.2,2.4-5.8,5.6-6v12.1C16.4,19.2,13.9,16.6,13.9,13.4z M20.5,32.6V20.5c3.1,0.3,5.6,2.9,5.6,6S23.6,32.3,20.5,32.6z"/>
</svg>
