<?xml version="1.0" encoding="utf-8"?>
<!-- Generator: Adobe Illustrator 19.1.0, SVG Export Plug-In . SVG Version: 6.00 Build 0)  -->
<svg version="1.1" id="Layer_1" xmlns="http://www.w3.org/2000/svg" xmlns:xlink="http://www.w3.org/1999/xlink" x="0px" y="0px"
	 viewBox="0 0 40 40" style="enable-background:new 0 0 40 40;" xml:space="preserve">
<path d="M35.5,6.8h-31c-2.4,0-4,1.6-4,4v18.3c0,2.3,1.7,4,3.9,4h31.1c2.3,0,4-1.8,4-4V10.9C39.5,8.4,37.9,6.8,35.5,6.8z M35.5,7.8
	c0.7,0,1.3,0.2,1.8,0.5L20.7,21.5L2.7,8.3C3.2,8,3.8,7.8,4.5,7.8H35.5z M38.5,29.1c0,1.7-1.3,3-3,3H4.4c-1.7,0-2.9-1.3-2.9-3V10.9
	C1.5,10.1,1.7,9.5,2,9l18.4,13.5c0.1,0.1,0.2,0.1,0.3,0.1c0.1,0,0.2,0,0.3-0.1L38,9c0.3,0.5,0.5,1.1,0.5,1.8V29.1z"/>
</svg>
