<?xml version="1.0" encoding="utf-8"?>
<!-- Generator: Adobe Illustrator 19.1.0, SVG Export Plug-In . SVG Version: 6.00 Build 0)  -->
<svg version="1.1" id="Layer_1" xmlns="http://www.w3.org/2000/svg" xmlns:xlink="http://www.w3.org/1999/xlink" x="0px" y="0px"
	 viewBox="0 0 40 40" enable-background="new 0 0 40 40" xml:space="preserve">
<g>
	<path d="M0.5,39c0,0.3,0.2,0.5,0.5,0.5h2.6h5.2h3.9H18H22h5.2h3.9h5.2H39c0.3,0,0.5-0.2,0.5-0.5s-0.2-0.5-0.5-0.5h-2.1v-7.4
		c0-0.3-0.2-0.5-0.5-0.5h-5.2c-0.3,0-0.5,0.2-0.5,0.5v7.4h-2.9V22c0-0.3-0.2-0.5-0.5-0.5H22c-0.3,0-0.5,0.2-0.5,0.5v16.5h-2.9V25.9
		c0-0.3-0.2-0.5-0.5-0.5h-5.2c-0.3,0-0.5,0.2-0.5,0.5v12.6H9.4V14.1c0-0.3-0.2-0.5-0.5-0.5H3.6c-0.3,0-0.5,0.2-0.5,0.5v24.4H1
		C0.7,38.5,0.5,38.7,0.5,39z M31.6,38.5v-6.9h4.2v6.9H31.6z M22.5,38.5v-16h4.2v16H22.5z M13.3,38.5V26.4h4.2v12.1H13.3z M4.1,38.5
		V14.6h4.2v23.9H4.1z"/>
	<path d="M36.9,19.3c0-1.4-1.1-2.5-2.5-2.5c-0.6,0-1.1,0.2-1.5,0.5L26.7,12c0.2-0.4,0.3-0.8,0.3-1.2c0-1.4-1.1-2.5-2.5-2.5
		s-2.5,1.1-2.5,2.5c0,0.1,0,0.3,0,0.4l-5.4,2.1c-0.4-0.7-1.2-1.1-2.1-1.1c-0.4,0-0.8,0.1-1.2,0.3L6.9,4.5C7.2,4.1,7.4,3.5,7.4,3
		c0-1.4-1.1-2.5-2.5-2.5S2.5,1.6,2.5,3c0,1.4,1.1,2.5,2.5,2.5c0.4,0,0.8-0.1,1.2-0.3l6.8,8.1c-0.3,0.4-0.5,0.9-0.5,1.5
		c0,1.4,1.1,2.5,2.5,2.5s2.5-1.1,2.5-2.5c0-0.1,0-0.3,0-0.4l5.4-2.1c0.4,0.7,1.2,1.1,2.1,1.1c0.6,0,1.1-0.2,1.5-0.5l6.2,5.4
		c-0.2,0.4-0.3,0.8-0.3,1.2c0,1.4,1.1,2.5,2.5,2.5S36.9,20.7,36.9,19.3z M6.4,3c0,0.8-0.7,1.5-1.5,1.5C4.1,4.4,3.5,3.8,3.5,3
		s0.7-1.5,1.5-1.5C5.7,1.5,6.4,2.2,6.4,3z M16.2,14.8c0,0.8-0.7,1.5-1.5,1.5s-1.5-0.7-1.5-1.5c0-0.5,0.2-0.8,0.5-1.1c0,0,0,0,0,0
		c0,0,0,0,0,0c0.3-0.2,0.6-0.3,0.9-0.3C15.6,13.3,16.2,14,16.2,14.8z M26.1,10.8c0,0.8-0.7,1.5-1.5,1.5c-0.8,0-1.5-0.7-1.5-1.5
		s0.7-1.5,1.5-1.5C25.4,9.4,26.1,10,26.1,10.8z M35.9,19.3c0,0.8-0.7,1.5-1.5,1.5c-0.8,0-1.5-0.7-1.5-1.5s0.7-1.5,1.5-1.5
		C35.2,17.9,35.9,18.5,35.9,19.3z"/>
</g>
</svg>
