<?xml version="1.0" encoding="utf-8"?>
<!-- Generator: Adobe Illustrator 19.1.0, SVG Export Plug-In . SVG Version: 6.00 Build 0)  -->
<svg version="1.1" id="Layer_1" xmlns="http://www.w3.org/2000/svg" xmlns:xlink="http://www.w3.org/1999/xlink" x="0px" y="0px"
	 viewBox="0 0 40 40" style="enable-background:new 0 0 40 40;" xml:space="preserve">
<g>
	<path d="M39,38.5h-2.1V14.1c0-0.3-0.2-0.5-0.5-0.5h-5.2c-0.3,0-0.5,0.2-0.5,0.5v24.4h-2.9V25.9c0-0.3-0.2-0.5-0.5-0.5H22
		c-0.3,0-0.5,0.2-0.5,0.5v12.6h-2.9V22c0-0.3-0.2-0.5-0.5-0.5h-5.2c-0.3,0-0.5,0.2-0.5,0.5v16.5H9.4v-7.4c0-0.3-0.2-0.5-0.5-0.5H3.6
		c-0.3,0-0.5,0.2-0.5,0.5v7.4H1c-0.3,0-0.5,0.2-0.5,0.5s0.2,0.5,0.5,0.5h2.6h5.2h3.9H18H22h5.2h3.9h5.2H39c0.3,0,0.5-0.2,0.5-0.5
		S39.3,38.5,39,38.5z M4.1,38.5v-6.9h4.2v6.9H4.1z M13.3,38.5v-16h4.2v16H13.3z M22.5,38.5V26.4h4.2v12.1H22.5z M31.6,38.5V14.6h4.2
		v23.9H31.6z"/>
	<path d="M5.6,21.8c1.4,0,2.5-1.1,2.5-2.5c0-0.4-0.1-0.8-0.3-1.2l6.2-5.4c0.4,0.3,0.9,0.5,1.5,0.5c0.9,0,1.6-0.4,2.1-1.1l5.4,2.1
		c0,0.1,0,0.3,0,0.4c0,1.4,1.1,2.5,2.5,2.5s2.5-1.1,2.5-2.5c0-0.6-0.2-1.1-0.5-1.5l6.8-8.1c0.3,0.2,0.7,0.3,1.2,0.3
		c1.4,0,2.5-1.1,2.5-2.5c0-1.4-1.1-2.5-2.5-2.5S32.6,1.6,32.6,3c0,0.6,0.2,1.1,0.5,1.5l-6.8,8.1c-0.3-0.2-0.7-0.3-1.2-0.3
		c-0.9,0-1.6,0.4-2.1,1.1l-5.4-2.1c0-0.1,0-0.3,0-0.4c0-1.4-1.1-2.5-2.5-2.5s-2.5,1.1-2.5,2.5c0,0.4,0.1,0.8,0.3,1.2l-6.2,5.4
		c-0.4-0.3-0.9-0.5-1.5-0.5c-1.4,0-2.5,1.1-2.5,2.5C3.1,20.7,4.2,21.8,5.6,21.8z M35.1,1.5c0.8,0,1.5,0.7,1.5,1.5s-0.7,1.5-1.5,1.5
		c-0.8,0-1.5-0.7-1.5-1.5S34.3,1.5,35.1,1.5z M25.2,13.3c0.4,0,0.7,0.1,0.9,0.3c0,0,0,0,0,0c0,0,0,0,0,0c0.3,0.3,0.5,0.7,0.5,1.1
		c0,0.8-0.7,1.5-1.5,1.5s-1.5-0.7-1.5-1.5S24.4,13.3,25.2,13.3z M15.4,9.4c0.8,0,1.5,0.7,1.5,1.5s-0.7,1.5-1.5,1.5
		c-0.8,0-1.5-0.7-1.5-1.5S14.6,9.4,15.4,9.4z M5.6,17.9c0.8,0,1.5,0.7,1.5,1.5s-0.7,1.5-1.5,1.5c-0.8,0-1.5-0.7-1.5-1.5
		S4.8,17.9,5.6,17.9z"/>
</g>
</svg>
