<?xml version="1.0" encoding="utf-8"?>
<!-- Generator: Adobe Illustrator 19.1.0, SVG Export Plug-In . SVG Version: 6.00 Build 0)  -->
<svg version="1.1" id="Layer_1" xmlns="http://www.w3.org/2000/svg" xmlns:xlink="http://www.w3.org/1999/xlink" x="0px" y="0px"
	 viewBox="0 0 40 40" style="enable-background:new 0 0 40 40;" xml:space="preserve">
<g>
	<path d="M20,0.5c-7.5,0-13.6,6.1-13.6,13.6c0,7.3,12.7,24.5,13.2,25.2c0.1,0.1,0.2,0.2,0.4,0.2s0.3-0.1,0.4-0.2
		c0.5-0.7,13.2-17.9,13.2-25.2C33.6,6.6,27.5,0.5,20,0.5z M20,38.2c-2.2-3-12.6-17.8-12.6-24C7.4,7.2,13.1,1.5,20,1.5
		s12.6,5.7,12.6,12.6C32.6,20.4,22.2,35.1,20,38.2z"/>
	<path d="M20,8.4c-3.2,0-5.7,2.6-5.7,5.7s2.6,5.7,5.7,5.7s5.7-2.6,5.7-5.7S23.2,8.4,20,8.4z M20,18.8c-2.6,0-4.7-2.1-4.7-4.7
		s2.1-4.7,4.7-4.7s4.7,2.1,4.7,4.7S22.6,18.8,20,18.8z"/>
</g>
</svg>
