<?xml version="1.0" encoding="utf-8"?>
<!-- Generator: Adobe Illustrator 19.1.0, SVG Export Plug-In . SVG Version: 6.00 Build 0)  -->
<svg version="1.1" id="Layer_1" xmlns="http://www.w3.org/2000/svg" xmlns:xlink="http://www.w3.org/1999/xlink" x="0px" y="0px"
	 viewBox="0 0 40 40" style="enable-background:new 0 0 40 40;" xml:space="preserve">
<g>
	<path d="M39.4,29.8c-1.7-1.7-3.2-2.7-5.4-2l-6.3,2.1c0-0.1,0-0.2,0-0.3c0-1.2-0.8-2.5-2.5-2.5l-2.4,0c-0.9,0-1.4,0-2.6,0
		c-2.2-1.7-4.7-2.6-7.4-2.6H8.1v-0.8c0-0.3-0.2-0.5-0.5-0.5H1c-0.3,0-0.5,0.2-0.5,0.5v11.8c0,0.3,0.2,0.5,0.5,0.5h6.6
		c0.3,0,0.5-0.2,0.5-0.5v-0.7c1.7,0.6,3.2,1.1,4.5,1.5c4.2,1.5,6.5,2.3,8.7,2.3c2.7,0,5.2-1.3,10.7-4.1c1.9-1,4.4-2.3,7.3-3.7
		c0.1-0.1,0.2-0.2,0.3-0.4C39.5,30.1,39.5,29.9,39.4,29.8z M7.1,34.9H1.5V24.1h5.6V34.9z M31.5,33.5c-9.5,5-9.5,5-18.6,1.8
		c-1.4-0.5-3-1-4.8-1.7v-8.2h4.7c2.5,0,4.8,0.8,6.9,2.5C19.8,28,19.9,28,20,28c1.3,0,1.9,0,2.8,0l2.4,0c1,0,1.5,0.7,1.5,1.5
		S26.2,31,25.2,31h-9.2c-0.3,0-0.5,0.2-0.5,0.5s0.2,0.5,0.5,0.5h9.2c0.9,0,1.5-0.4,1.8-0.8c0,0,0.1-0.1,0.1-0.1l7-2.3
		c1.3-0.4,2.5,0,3.9,1.3C35.5,31.4,33.3,32.5,31.5,33.5z"/>
	<path d="M20.7,20.8c0.3,0,0.5-0.2,0.5-0.5v-3.9c0-0.3-0.2-0.5-0.5-0.5s-0.5,0.2-0.5,0.5v3.9C20.2,20.6,20.4,20.8,20.7,20.8z"/>
	<path d="M28.5,9C28.8,9,29,8.8,29,8.5V4.6c0-0.3-0.2-0.5-0.5-0.5S28,4.3,28,4.6v3.9C28,8.8,28.2,9,28.5,9z"/>
	<path d="M20.7,23.5c2.8,0,5.1-2.3,5.1-5.1c0-2.8-2.3-5.1-5.1-5.1s-5.1,2.3-5.1,5.1C15.6,21.2,17.9,23.5,20.7,23.5z M20.7,14.3
		c2.3,0,4.1,1.8,4.1,4.1c0,2.3-1.8,4.1-4.1,4.1s-4.1-1.8-4.1-4.1C16.6,16.1,18.4,14.3,20.7,14.3z"/>
	<path d="M28.5,11.7c2.8,0,5.1-2.3,5.1-5.1c0-2.8-2.3-5.1-5.1-5.1s-5.1,2.3-5.1,5.1C23.4,9.4,25.7,11.7,28.5,11.7z M28.5,2.5
		c2.3,0,4.1,1.8,4.1,4.1c0,2.3-1.8,4.1-4.1,4.1s-4.1-1.8-4.1-4.1C24.4,4.3,26.3,2.5,28.5,2.5z"/>
</g>
</svg>
