<?xml version="1.0" encoding="utf-8"?>
<!-- Generator: Adobe Illustrator 19.1.0, SVG Export Plug-In . SVG Version: 6.00 Build 0)  -->
<svg version="1.1" id="Layer_1" xmlns="http://www.w3.org/2000/svg" xmlns:xlink="http://www.w3.org/1999/xlink" x="0px" y="0px"
	 viewBox="0 0 40 40" enable-background="new 0 0 40 40" xml:space="preserve">
<g>
	<path fill="none" stroke="#231F20" stroke-linecap="round" stroke-linejoin="round" stroke-miterlimit="10" d="M17.1,15.1
		c1-1,1.1-2.7,0.2-3.6l-2.6-2.6c-0.9-0.9-2.6-0.9-3.6,0.2l-1.6,1.6C8.2,12,7.9,14,8.8,15.5c4,6.3,9.4,11.7,15.7,15.7
		c1.5,0.9,3.5,0.6,4.8-0.7l1.6-1.6c1-1,1.1-2.7,0.2-3.6l-2.6-2.6c-0.9-0.9-2.6-0.9-3.6,0.2L24,23.9c-2.8-2.3-5.6-5-7.8-7.8
		L17.1,15.1z"/>
	<path fill="none" stroke="#231F20" stroke-linecap="round" stroke-linejoin="round" stroke-miterlimit="10" d="M29.9,29.9
		c0.8,0.8,2.6,9.1-9.9,9.1C9.5,39,1,30.5,1,20S9.5,1,20,1c10.5,0,19,8.5,19,19c0,4-1.2,7.7-3.3,10.7"/>
</g>
</svg>
